<?xml version="1.0" standalone="no"?>
<!DOCTYPE svg PUBLIC "-//W3C//DTD SVG 20010904//EN"
 "http://www.w3.org/TR/2001/REC-SVG-20010904/DTD/svg10.dtd">
<svg version="1.0" xmlns="http://www.w3.org/2000/svg"
 width="1024.000000pt" height="1024.000000pt" viewBox="0 0 1024.000000 1024.000000"
 preserveAspectRatio="xMidYMid meet">

<g transform="translate(0.000000,1024.000000) scale(0.100000,-0.100000)"
fill="#000000" stroke="none">
<path d="M0 5120 l0 -5120 5120 0 5120 0 0 5120 0 5120 -5120 0 -5120 0 0
-5120z m5415 3069 c136 -15 447 -76 560 -111 305 -93 623 -254 870 -441 44
-34 100 -76 125 -94 146 -110 346 -325 510 -548 391 -533 564 -1044 563 -1655
-1 -412 -39 -652 -154 -972 -146 -407 -392 -775 -746 -1120 -404 -392 -977
-683 -1545 -783 -235 -42 -672 -45 -925 -6 -568 86 -1057 327 -1561 770 -136
120 -396 443 -520 646 -128 211 -261 523 -317 743 -60 241 -70 332 -70 677 0
208 5 352 13 410 55 385 182 736 387 1071 200 326 433 586 737 822 227 177
352 250 642 377 210 91 351 132 661 191 213 41 521 50 770 23z m-1742 -47 l39
-7 -89 -66 c-48 -36 -133 -97 -188 -134 -119 -81 -210 -152 -285 -220 l-55
-50 -208 0 -208 0 6 -140 c3 -77 8 -163 10 -190 5 -57 1 -65 -80 -160 -90
-107 -281 -376 -341 -484 -16 -28 -33 -51 -38 -51 -5 0 -6 91 -3 223 4 122 10
454 14 738 l6 516 571 8 c314 4 609 10 656 14 119 10 149 11 193 3z m3758 -17
l566 -8 6 -731 c4 -431 3 -743 -2 -761 -5 -16 -10 -23 -10 -15 -1 15 -57 109
-184 310 -64 100 -129 191 -226 314 -40 52 -42 58 -32 87 6 18 11 101 11 192
l0 160 -172 -6 c-95 -3 -184 -8 -198 -12 -21 -4 -38 6 -100 61 -75 65 -261
201 -387 281 -36 23 -93 63 -126 89 -47 36 -57 49 -45 53 10 3 88 3 175 0 87
-4 413 -10 724 -14z m568 -4912 l-3 -768 -728 -3 c-592 -2 -728 0 -728 11 0
17 65 78 162 155 42 33 96 76 120 95 219 179 312 247 327 240 9 -4 103 -9 210
-11 l194 -4 -5 209 -5 208 42 50 c23 28 64 81 91 120 27 38 59 83 71 100 31
43 215 317 231 343 7 12 15 22 18 22 3 0 4 -345 3 -767z m-5659 593 c30 -38
73 -95 95 -127 22 -32 90 -123 151 -202 l111 -144 -8 -49 c-4 -27 -8 -119 -8
-206 l-1 -156 138 4 c162 5 239 11 268 19 16 5 53 -19 165 -107 79 -63 167
-129 194 -148 28 -19 108 -80 178 -137 l128 -103 -78 -2 c-43 0 -382 -1 -753
-2 l-675 -1 -3 475 c-1 261 -5 606 -8 765 l-5 290 28 -50 c16 -27 53 -81 83
-119z"/>
<path d="M4960 7744 c-328 -27 -671 -124 -969 -276 -265 -135 -412 -239 -614
-437 -289 -283 -502 -615 -615 -962 -90 -274 -125 -500 -126 -814 -1 -199 8
-277 58 -500 52 -231 173 -498 341 -750 123 -184 159 -229 305 -379 337 -347
793 -604 1244 -701 418 -90 704 -82 1160 31 286 70 591 216 842 403 289 215
630 614 777 909 170 340 247 665 247 1043 0 228 -14 356 -61 549 -145 598
-514 1107 -1084 1494 -184 126 -489 263 -685 310 -232 56 -395 78 -590 81
-102 1 -205 1 -230 -1z m180 -1227 c0 -5 -12 -17 -416 -432 -170 -176 -385
-401 -477 -500 -91 -99 -189 -196 -216 -215 -28 -19 -50 -38 -51 -42 0 -5 31
-41 68 -80 37 -40 105 -116 152 -168 46 -52 272 -288 502 -524 230 -236 418
-432 418 -436 0 -5 -30 -8 -67 -7 -38 1 -177 0 -310 -2 l-241 -3 -94 98 c-328
344 -743 764 -755 764 -12 0 -13 -70 -8 -432 l6 -431 -122 6 c-67 4 -170 7
-228 7 l-106 0 2 1187 3 1188 217 5 c120 3 220 4 223 2 3 -2 5 -204 5 -448 l0
-444 109 112 c59 62 145 153 189 203 44 49 191 201 326 337 l245 248 260 3
c144 1 285 3 314 5 28 1 52 0 52 -1z m1242 -40 c318 -83 606 -311 753 -598
109 -212 141 -364 132 -629 -6 -181 -19 -249 -80 -406 -76 -197 -197 -358
-376 -500 -120 -96 -197 -139 -336 -187 -143 -49 -225 -61 -415 -61 -134 1
-182 5 -255 23 -225 54 -395 153 -567 328 -126 128 -197 236 -257 392 -55 144
-72 231 -78 406 -8 250 20 409 101 575 68 137 129 223 233 326 150 151 304
247 500 313 129 43 193 50 383 46 136 -3 182 -7 262 -28z"/>
<path d="M5960 6026 c-197 -42 -347 -139 -468 -304 -96 -130 -131 -230 -139
-389 -7 -136 9 -218 67 -338 63 -131 208 -283 330 -345 65 -33 203 -71 279
-77 151 -11 333 38 461 125 101 68 237 264 281 402 26 84 35 235 20 325 -47
270 -260 511 -521 589 -76 23 -229 29 -310 12z"/>
</g>
</svg>
