<?xml version="1.0" encoding="UTF-8"?>
<svg xmlns="http://www.w3.org/2000/svg" xmlns:xlink="http://www.w3.org/1999/xlink" width="240px" height="240px" viewBox="0 0 240 240" version="1.1">
<g id="surface1">
<path style=" stroke:none;fill-rule:nonzero;fill:rgb(89.803922%,20.784314%,67.058825%);fill-opacity:1;" d="M 34.480469 181.597656 L 25.855469 176.617188 L 121.945312 10.1875 L 130.570312 15.167969 Z M 34.480469 181.597656 "/>
<path style=" stroke:none;fill-rule:nonzero;fill:rgb(89.803922%,20.784314%,67.058825%);fill-opacity:1;" d="M 23.878906 163.320312 L 216.058594 163.320312 L 216.058594 173.28125 L 23.878906 173.28125 Z M 23.878906 163.320312 "/>
<path style=" stroke:none;fill-rule:nonzero;fill:rgb(89.803922%,20.784314%,67.058825%);fill-opacity:1;" d="M 123.808594 224.414062 L 27.683594 168.914062 L 32.664062 160.289062 L 128.789062 215.789062 Z M 123.808594 224.414062 "/>
<path style=" stroke:none;fill-rule:nonzero;fill:rgb(89.803922%,20.784314%,67.058825%);fill-opacity:1;" d="M 207.3125 79.769531 L 111.1875 24.269531 L 116.167969 15.644531 L 212.292969 71.144531 Z M 207.3125 79.769531 "/>
<path style=" stroke:none;fill-rule:nonzero;fill:rgb(89.803922%,20.784314%,67.058825%);fill-opacity:1;" d="M 32.6875 79.730469 L 27.710938 71.105469 L 123.835938 15.605469 L 128.816406 24.230469 Z M 32.6875 79.730469 "/>
<path style=" stroke:none;fill-rule:nonzero;fill:rgb(89.803922%,20.784314%,67.058825%);fill-opacity:1;" d="M 205.542969 181.597656 L 109.449219 15.167969 L 118.078125 10.191406 L 214.167969 176.617188 Z M 205.542969 181.597656 "/>
<path style=" stroke:none;fill-rule:nonzero;fill:rgb(89.803922%,20.784314%,67.058825%);fill-opacity:1;" d="M 31.5 64.5 L 41.460938 64.5 L 41.460938 175.5 L 31.5 175.5 Z M 31.5 64.5 "/>
<path style=" stroke:none;fill-rule:nonzero;fill:rgb(89.803922%,20.784314%,67.058825%);fill-opacity:1;" d="M 198.539062 64.5 L 208.5 64.5 L 208.5 175.5 L 198.539062 175.5 Z M 198.539062 64.5 "/>
<path style=" stroke:none;fill-rule:nonzero;fill:rgb(89.803922%,20.784314%,67.058825%);fill-opacity:1;" d="M 122.113281 220.199219 L 117.761719 212.664062 L 201.367188 164.394531 L 205.714844 171.929688 Z M 122.113281 220.199219 "/>
<path style=" stroke:none;fill-rule:nonzero;fill:rgb(89.803922%,20.784314%,67.058825%);fill-opacity:1;" d="M 221.699219 178.738281 C 215.941406 188.761719 203.101562 192.179688 193.078125 186.421875 C 183.058594 180.660156 179.640625 167.820312 185.398438 157.800781 C 191.160156 147.78125 204 144.359375 214.019531 150.121094 C 224.101562 155.941406 227.519531 168.71875 221.699219 178.738281 "/>
<path style=" stroke:none;fill-rule:nonzero;fill:rgb(89.803922%,20.784314%,67.058825%);fill-opacity:1;" d="M 54.539062 82.199219 C 48.78125 92.21875 35.941406 95.640625 25.921875 89.878906 C 15.898438 84.121094 12.480469 71.28125 18.238281 61.261719 C 24 51.238281 36.839844 47.820312 46.859375 53.578125 C 56.878906 59.398438 60.300781 72.179688 54.539062 82.199219 "/>
<path style=" stroke:none;fill-rule:nonzero;fill:rgb(89.803922%,20.784314%,67.058825%);fill-opacity:1;" d="M 18.300781 178.738281 C 12.539062 168.71875 15.960938 155.941406 25.980469 150.121094 C 36 144.359375 48.78125 147.78125 54.601562 157.800781 C 60.359375 167.820312 56.941406 180.601562 46.921875 186.421875 C 36.839844 192.179688 24.058594 188.761719 18.300781 178.738281 "/>
<path style=" stroke:none;fill-rule:nonzero;fill:rgb(89.803922%,20.784314%,67.058825%);fill-opacity:1;" d="M 185.460938 82.199219 C 179.699219 72.179688 183.121094 59.398438 193.140625 53.578125 C 203.160156 47.820312 215.941406 51.238281 221.761719 61.261719 C 227.519531 71.28125 224.101562 84.058594 214.078125 89.878906 C 204.058594 95.640625 191.21875 92.21875 185.460938 82.199219 "/>
<path style=" stroke:none;fill-rule:nonzero;fill:rgb(89.803922%,20.784314%,67.058825%);fill-opacity:1;" d="M 120 237.480469 C 108.421875 237.480469 99.058594 228.121094 99.058594 216.539062 C 99.058594 204.960938 108.421875 195.601562 120 195.601562 C 131.578125 195.601562 140.941406 204.960938 140.941406 216.539062 C 140.941406 228.058594 131.578125 237.480469 120 237.480469 "/>
<path style=" stroke:none;fill-rule:nonzero;fill:rgb(89.803922%,20.784314%,67.058825%);fill-opacity:1;" d="M 120 44.398438 C 108.421875 44.398438 99.058594 35.039062 99.058594 23.460938 C 99.058594 11.878906 108.421875 2.519531 120 2.519531 C 131.578125 2.519531 140.941406 11.878906 140.941406 23.460938 C 140.941406 35.039062 131.578125 44.398438 120 44.398438 "/>
</g>
</svg>
